<?xml version="1.0" encoding="UTF-8" standalone="no"?>
<!DOCTYPE svg PUBLIC "-//W3C//DTD SVG 1.1//EN" "http://www.w3.org/Graphics/SVG/1.1/DTD/svg11.dtd">
<svg width="100%" height="100%" viewBox="0 0 64 64" version="1.1" xmlns="http://www.w3.org/2000/svg" xmlns:xlink="http://www.w3.org/1999/xlink" xml:space="preserve" xmlns:serif="http://www.serif.com/" style="fill-rule:evenodd;clip-rule:evenodd;stroke-linejoin:round;stroke-miterlimit:2;">
    <g id="Development">
        <rect x="35" y="5" width="28" height="8" style="fill:rgb(249,87,88);"/>
        <rect x="7" y="19" width="21" height="7" style="fill:rgb(249,87,88);"/>
        <rect x="7" y="51" width="21" height="2" style="fill:rgb(249,87,88);"/>
        <path d="M8.5,36C9.323,36 10,35.323 10,34.5C10,33.677 9.323,33 8.5,33C7.677,33 7,33.677 7,34.5C7,35.323 7.677,36 8.5,36Z" style="fill:rgb(249,87,88);fill-rule:nonzero;"/>
        <path d="M17.5,36C18.323,36 19,35.323 19,34.5C19,33.677 18.323,33 17.5,33C16.677,33 16,33.677 16,34.5C16,35.323 16.677,36 17.5,36Z" style="fill:rgb(249,87,88);fill-rule:nonzero;"/>
        <path d="M35,59L63,59L63,15L35,15L35,59ZM54,53L38,53C37.451,53 37,52.549 37,52C37,51.451 37.451,51 38,51L54,51C54.549,51 55,51.451 55,52C55,52.549 54.549,53 54,53ZM59,48L38,48C37.451,48 37,47.549 37,47C37,46.451 37.451,46 38,46L59,46C59.549,46 60,46.451 60,47C60,47.549 59.549,48 59,48ZM38,41L56,41C56.549,41 57,41.451 57,42C57,42.549 56.549,43 56,43L38,43C37.451,43 37,42.549 37,42C37,41.451 37.451,41 38,41ZM38,36L52,36C52.549,36 53,36.451 53,37C53,37.549 52.549,38 52,38L38,38C37.451,38 37,37.549 37,37C37,36.451 37.451,36 38,36ZM59,33L38,33C37.451,33 37,32.549 37,32C37,31.451 37.451,31 38,31L59,31C59.549,31 60,31.451 60,32C60,32.549 59.549,33 59,33ZM54.29,18.71C54.102,18.522 53.996,18.266 53.996,18C53.996,17.449 54.449,16.996 55,16.996C55.266,16.996 55.522,17.102 55.71,17.29L59.71,21.29C59.899,21.478 60.006,21.733 60.006,22C60.006,22.267 59.899,22.522 59.71,22.71C55.41,27 55.58,27 55,27C54.998,27 54.996,27 54.994,27C54.446,27 53.994,26.549 53.994,26C53.994,25.733 54.101,25.478 54.29,25.29L57.59,22L54.29,18.71ZM45.15,25.47L50.15,17.47C50.333,17.177 50.655,16.998 51,16.998C51.55,16.998 52.002,17.45 52.002,18C52.002,18.187 51.949,18.371 51.85,18.53L46.85,26.53C46.667,26.823 46.345,27.002 46,27.002C45.45,27.002 44.998,26.55 44.998,26C44.998,25.813 45.051,25.629 45.15,25.47ZM37.29,21.29L41.29,17.29C41.478,17.102 41.734,16.996 42,16.996C42.551,16.996 43.004,17.449 43.004,18C43.004,18.266 42.898,18.522 42.71,18.71L39.41,22L42.71,25.29C42.898,25.478 43.004,25.734 43.004,26C43.004,26.551 42.551,27.004 42,27.004C41.734,27.004 41.478,26.898 41.29,26.71L37.29,22.71C37.101,22.522 36.994,22.267 36.994,22C36.994,21.733 37.101,21.478 37.29,21.29Z" style="fill:rgb(249,87,88);fill-rule:nonzero;"/>
        <path d="M1,15L1,59L31,59L31,63C31,63.549 31.451,64 32,64C32.549,64 33,63.549 33,63L33,15L1,15ZM6,40L11,40C11.549,40 12,40.451 12,41C12,41.549 11.549,42 11,42L6,42C5.451,42 5,41.549 5,41C5,40.451 5.451,40 6,40ZM5,34.5C5,32.58 6.58,31 8.5,31C10.42,31 12,32.58 12,34.5C12,36.42 10.42,38 8.5,38C6.58,38 5,36.42 5,34.5ZM6,44L11,44C11.549,44 12,44.451 12,45C12,45.549 11.549,46 11,46L6,46C5.451,46 5,45.549 5,45C5,44.451 5.451,44 6,44ZM30,54C30,54.549 29.549,55 29,55L6,55C5.451,55 5,54.549 5,54L5,50C5,49.451 5.451,49 6,49L29,49C29.549,49 30,49.451 30,50L30,54ZM15,40L20,40C20.549,40 21,40.451 21,41C21,41.549 20.549,42 20,42L15,42C14.451,42 14,41.549 14,41C14,40.451 14.451,40 15,40ZM14,34.5C14,32.58 15.58,31 17.5,31C19.42,31 21,32.58 21,34.5C21,36.42 19.42,38 17.5,38C15.58,38 14,36.42 14,34.5ZM15,44L20,44C20.549,44 21,44.451 21,45C21,45.549 20.549,46 20,46L15,46C14.451,46 14,45.549 14,45C14,44.451 14.451,44 15,44ZM29,46L24,46C23.451,46 23,45.549 23,45C23,44.451 23.451,44 24,44L29,44C29.549,44 30,44.451 30,45C30,45.549 29.549,46 29,46ZM29,42L24,42C23.451,42 23,41.549 23,41C23,40.451 23.451,40 24,40L29,40C29.549,40 30,40.451 30,41C30,41.549 29.549,42 29,42ZM26.5,38C24.58,38 23,36.42 23,34.5C23,32.58 24.58,31 26.5,31C28.42,31 30,32.58 30,34.5C30,36.42 28.42,38 26.5,38ZM30,27C30,27.549 29.549,28 29,28L6,28C5.451,28 5,27.549 5,27L5,18C5,17.451 5.451,17 6,17L29,17C29.549,17 30,17.451 30,18L30,27Z" style="fill:rgb(249,87,88);fill-rule:nonzero;"/>
        <path d="M26.5,33C25.677,33 25,33.677 25,34.5C25,35.323 25.677,36 26.5,36C27.323,36 28,35.323 28,34.5C28,33.677 27.323,33 26.5,33Z" style="fill:rgb(249,87,88);fill-rule:nonzero;"/>
        <path d="M31,1L31,5L1,5L1,13L33,13L33,1C33,0.451 32.549,0 32,0C31.451,-0 31,0.451 31,1ZM6,10C5.451,10 5,9.549 5,9C5,8.451 5.451,8 6,8C6.549,8 7,8.451 7,9C7,9.549 6.549,10 6,10ZM11,10C10.451,10 10,9.549 10,9C10,8.451 10.451,8 11,8C11.549,8 12,8.451 12,9C12,9.549 11.549,10 11,10ZM16,10C15.451,10 15,9.549 15,9C15,8.451 15.451,8 16,8C16.549,8 17,8.451 17,9C17,9.549 16.549,10 16,10Z" style="fill:rgb(249,87,88);fill-rule:nonzero;"/>
    </g>
</svg>
