<?xml version="1.0" encoding="UTF-8" standalone="no"?>
<!DOCTYPE svg PUBLIC "-//W3C//DTD SVG 1.1//EN" "http://www.w3.org/Graphics/SVG/1.1/DTD/svg11.dtd">
<svg width="100%" height="100%" viewBox="0 0 64 64" version="1.1" xmlns="http://www.w3.org/2000/svg" xmlns:xlink="http://www.w3.org/1999/xlink" xml:space="preserve" xmlns:serif="http://www.serif.com/" style="fill-rule:evenodd;clip-rule:evenodd;stroke-linejoin:round;stroke-miterlimit:2;">
    <g id="Technology">
        <circle cx="32" cy="32" r="2" style="fill:rgb(249,87,88);"/>
        <path d="M19,45L45,45L45,19L19,19L19,45ZM23.16,30.36L21.84,29.6C21.528,29.422 21.335,29.09 21.335,28.731C21.335,28.555 21.382,28.382 21.47,28.23L23.47,24.77C23.648,24.458 23.98,24.265 24.339,24.265C24.515,24.265 24.688,24.312 24.84,24.4L26.15,25.16C26.994,24.447 27.959,23.891 29,23.52L29,22C29,21.451 29.451,21 30,21L34,21C34.549,21 35,21.451 35,22L35,23.52C36.039,23.888 37.002,24.444 37.84,25.16L39.16,24.4C39.312,24.312 39.485,24.265 39.661,24.265C40.02,24.265 40.352,24.458 40.53,24.77C43.24,29.46 43.4,28.89 40.84,30.36C41.05,31.443 41.05,32.557 40.84,33.64C43.42,35.13 43.22,34.57 40.53,39.23C40.352,39.542 40.02,39.735 39.661,39.735C39.485,39.735 39.312,39.688 39.16,39.6L37.84,38.84C37.002,39.556 36.039,40.112 35,40.48L35,42C35,42.549 34.549,43 34,43L30,43C29.451,43 29,42.549 29,42L29,40.48C27.959,40.109 26.994,39.553 26.15,38.84L24.84,39.6C24.688,39.688 24.515,39.735 24.339,39.735C23.98,39.735 23.648,39.542 23.47,39.23L21.47,35.77C21.382,35.618 21.335,35.445 21.335,35.269C21.335,34.91 21.528,34.578 21.84,34.4L23.16,33.64C22.95,32.557 22.95,31.443 23.16,30.36Z" style="fill:rgb(249,87,88);fill-rule:nonzero;"/>
        <path d="M24.8,35L23.71,35.63L24.71,37.37C25.71,36.79 26.35,36.24 27.01,36.9C29.24,39.18 31.01,38.31 31.01,39.74L31.01,41L33.01,41C33.01,39.7 32.88,39 33.76,38.77C36.93,37.95 36.95,36.01 38.22,36.77L39.3,37.4L40.3,35.66L39.2,35C37.97,34.31 39.59,33.23 38.74,30.13C38.51,29.27 39.18,29.01 40.29,28.37L39.29,26.63L38.21,27.26C36.99,27.96 36.83,26.03 33.75,25.26C32.87,25 33,24.22 33,23L31,23L31,24.26C31,25.7 29.24,24.82 27,27.1C26.34,27.76 25.69,27.21 24.7,26.63L23.7,28.37L24.8,29C25.74,29.53 25,30.35 25,32C25,33.65 25.74,34.47 24.8,35ZM32,28C34.194,28 36,29.806 36,32C36,34.194 34.194,36 32,36C29.806,36 28,34.194 28,32C28,29.806 29.806,28 32,28Z" style="fill:rgb(249,87,88);fill-rule:nonzero;"/>
        <path d="M46,14L18,14C15.806,14 14,15.806 14,18L14,46C14,48.194 15.806,50 18,50L46,50C48.194,50 50,48.194 50,46L50,18C50,15.806 48.194,14 46,14ZM47,46C47,46.549 46.549,47 46,47L18,47C17.451,47 17,46.549 17,46L17,18C17,17.451 17.451,17 18,17L46,17C46.549,17 47,17.451 47,18L47,46Z" style="fill:rgb(249,87,88);fill-rule:nonzero;"/>
        <circle cx="38" cy="61" r="2" style="fill:rgb(249,87,88);"/>
        <circle cx="49" cy="61" r="2" style="fill:rgb(249,87,88);"/>
        <circle cx="26" cy="61" r="2" style="fill:rgb(249,87,88);"/>
        <circle cx="15" cy="61" r="2" style="fill:rgb(249,87,88);"/>
        <path d="M28,56.67L26.89,58.14C27.545,58.344 28.113,58.764 28.5,59.33C29.91,57.45 30,57.43 30,57L30,52L28,52L28,56.67Z" style="fill:rgb(249,87,88);fill-rule:nonzero;"/>
        <path d="M36,56.67L36,52L34,52C34,58.38 33.61,56.82 35.5,59.33C35.887,58.764 36.455,58.344 37.11,58.14L36,56.67Z" style="fill:rgb(249,87,88);fill-rule:nonzero;"/>
        <path d="M42,55.45L42,52L40,52C40,56.27 39.85,56.47 40.47,56.85L46.07,60.35C46.22,59.682 46.594,59.086 47.13,58.66L42,55.45Z" style="fill:rgb(249,87,88);fill-rule:nonzero;"/>
        <path d="M24,52L22,52L22,55L15,55C14.451,55 14,55.451 14,56L14,58.18C14.645,57.94 15.355,57.94 16,58.18L16,57L23,57C23.549,57 24,56.549 24,56L24,52Z" style="fill:rgb(249,87,88);fill-rule:nonzero;"/>
        <circle cx="26" cy="3" r="2" style="fill:rgb(249,87,88);"/>
        <circle cx="15" cy="3" r="2" style="fill:rgb(249,87,88);"/>
        <circle cx="38" cy="3" r="2" style="fill:rgb(249,87,88);"/>
        <circle cx="49" cy="3" r="2" style="fill:rgb(249,87,88);"/>
        <path d="M36,7.33L37.11,5.86C36.455,5.656 35.887,5.236 35.5,4.67C34.09,6.55 34,6.57 34,7L34,12L36,12L36,7.33Z" style="fill:rgb(249,87,88);fill-rule:nonzero;"/>
        <path d="M28,7.33L28,12L30,12C30,5.62 30.39,7.18 28.5,4.67C28.113,5.236 27.545,5.656 26.89,5.86L28,7.33Z" style="fill:rgb(249,87,88);fill-rule:nonzero;"/>
        <path d="M22,8.55L22,12L24,12C24,7.73 24.15,7.53 23.53,7.15L17.93,3.65C17.78,4.318 17.406,4.914 16.87,5.34L22,8.55Z" style="fill:rgb(249,87,88);fill-rule:nonzero;"/>
        <path d="M40,12L42,12L42,9L49,9C49.549,9 50,8.549 50,8L50,5.82C49.355,6.06 48.645,6.06 48,5.82L48,7L41,7C40.451,7 40,7.451 40,8L40,12Z" style="fill:rgb(249,87,88);fill-rule:nonzero;"/>
        <circle cx="3" cy="38" r="2" style="fill:rgb(249,87,88);"/>
        <circle cx="3" cy="49" r="2" style="fill:rgb(249,87,88);"/>
        <circle cx="3" cy="26" r="2" style="fill:rgb(249,87,88);"/>
        <circle cx="3" cy="15" r="2" style="fill:rgb(249,87,88);"/>
        <path d="M5.86,26.89C5.656,27.545 5.236,28.113 4.67,28.5C7.18,30.38 5.6,30 12,30L12,28L7.33,28L5.86,26.89Z" style="fill:rgb(249,87,88);fill-rule:nonzero;"/>
        <path d="M4.67,35.5C5.236,35.887 5.656,36.455 5.86,37.11L7.33,36L12,36L12,34C5.62,34 7.18,33.61 4.67,35.5Z" style="fill:rgb(249,87,88);fill-rule:nonzero;"/>
        <path d="M7.15,40.47L3.65,46.07C4.318,46.22 4.914,46.594 5.34,47.13L8.55,42L12,42L12,40C7.73,40 7.53,39.85 7.15,40.47Z" style="fill:rgb(249,87,88);fill-rule:nonzero;"/>
        <path d="M9,15C9,14.451 8.549,14 8,14L5.82,14C6.06,14.645 6.06,15.355 5.82,16L7,16L7,23C7,23.549 7.451,24 8,24L12,24L12,22L9,22L9,15Z" style="fill:rgb(249,87,88);fill-rule:nonzero;"/>
        <circle cx="61" cy="26" r="2" style="fill:rgb(249,87,88);"/>
        <circle cx="61" cy="15" r="2" style="fill:rgb(249,87,88);"/>
        <circle cx="61" cy="38" r="2" style="fill:rgb(249,87,88);"/>
        <circle cx="61" cy="49" r="2" style="fill:rgb(249,87,88);"/>
        <path d="M52,34L52,36L56.67,36L58.14,37.11C58.344,36.455 58.764,35.887 59.33,35.5C56.82,33.62 58.4,34 52,34Z" style="fill:rgb(249,87,88);fill-rule:nonzero;"/>
        <path d="M59.33,28.5C58.764,28.113 58.344,27.545 58.14,26.89L56.67,28L52,28L52,30C58.38,30 56.82,30.39 59.33,28.5Z" style="fill:rgb(249,87,88);fill-rule:nonzero;"/>
        <path d="M56.85,23.53L60.35,17.93C59.682,17.78 59.086,17.406 58.66,16.87L55.45,22L52,22L52,24C56.27,24 56.47,24.15 56.85,23.53Z" style="fill:rgb(249,87,88);fill-rule:nonzero;"/>
        <path d="M57,48L57,41C57,40.451 56.549,40 56,40L52,40L52,42L55,42L55,49C55,49.549 55.451,50 56,50L58.18,50C57.94,49.355 57.94,48.645 58.18,48L57,48Z" style="fill:rgb(249,87,88);fill-rule:nonzero;"/>
    </g>
</svg>
