<?xml version="1.0" encoding="UTF-8" standalone="no"?>
<!DOCTYPE svg PUBLIC "-//W3C//DTD SVG 1.1//EN" "http://www.w3.org/Graphics/SVG/1.1/DTD/svg11.dtd">
<svg width="100%" height="100%" viewBox="0 0 64 64" version="1.1" xmlns="http://www.w3.org/2000/svg" xmlns:xlink="http://www.w3.org/1999/xlink" xml:space="preserve" xmlns:serif="http://www.serif.com/" style="fill-rule:evenodd;clip-rule:evenodd;stroke-linejoin:round;stroke-miterlimit:2;">
    <g id="Warning">
        <path d="M39.46,58L40.8,56L23.2,56L24.54,58L39.46,58Z" style="fill:rgb(249,87,88);fill-rule:nonzero;"/>
        <path d="M61,56L43,56C42.998,56.196 42.939,56.387 42.83,56.55C40.71,59.72 40.7,60 40,60C22.75,60 23.58,60.19 23.17,59.55C21.05,56.37 21,56.4 21,56L3,56C1.903,56 1,56.903 1,58L1,60C1,62.194 2.806,64 5,64L59,64C61.194,64 63,62.194 63,60L63,58C63,56.903 62.097,56 61,56Z" style="fill:rgb(249,87,88);fill-rule:nonzero;"/>
        <rect x="52" y="19" width="2" height="30" style="fill:rgb(249,87,88);"/>
        <path d="M59,17C59,15.354 57.646,14 56,14L52,14L52,17L55,17C55.549,17 56,17.451 56,18L56,50C56,50.549 55.549,51 55,51L9,51C8.451,51 8,50.549 8,50L8,18C8,17.451 8.451,17 9,17L12,17L12,14L8,14C6.354,14 5,15.354 5,17L5,54L59,54L59,17Z" style="fill:rgb(249,87,88);fill-rule:nonzero;"/>
        <rect x="10" y="19" width="2" height="30" style="fill:rgb(249,87,88);"/>
        <path d="M14,8L14,49L50,49L50,8L14,8ZM43.2,41L20.8,41C19.264,41 18,39.736 18,38.2C18,37.09 17.49,38.2 29.63,18.33C30.135,17.507 31.034,17.003 32,17.003C32.966,17.003 33.865,17.507 34.37,18.33C46.51,38.26 46,37.09 46,38.2C46,39.736 44.736,41 43.2,41ZM32.67,19.38C32.526,19.149 32.272,19.009 32,19.009C31.728,19.009 31.474,19.149 31.33,19.38C19.26,39.21 20,37.89 20,38.2C20,38.639 20.361,39 20.8,39L43.2,39C43.636,38.996 43.993,38.636 43.993,38.2C43.993,38.056 43.954,37.914 43.88,37.79L32.67,19.38ZM32,37C31.451,37 31,36.549 31,36C31,35.451 31.451,35 32,35C32.549,35 33,35.451 33,36C33,36.549 32.549,37 32,37ZM33,33C33,33.549 32.549,34 32,34C31.451,34 31,33.549 31,33L31,25C31,24.451 31.451,24 32,24C32.549,24 33,24.451 33,25L33,33Z" style="fill:rgb(249,87,88);fill-rule:nonzero;"/>
        <path d="M14,0L14,6L50,6L50,0L14,0ZM18,4C17.451,4 17,3.549 17,3C17,2.451 17.451,2 18,2C18.549,2 19,2.451 19,3C19,3.549 18.549,4 18,4ZM22,4C21.451,4 21,3.549 21,3C21,2.451 21.451,2 22,2C22.549,2 23,2.451 23,3C23,3.549 22.549,4 22,4ZM26,4C25.451,4 25,3.549 25,3C25,2.451 25.451,2 26,2C26.549,2 27,2.451 27,3C27,3.549 26.549,4 26,4Z" style="fill:rgb(249,87,88);fill-rule:nonzero;"/>
    </g>
</svg>
