<?xml version="1.0" encoding="UTF-8" standalone="no"?>
<!DOCTYPE svg PUBLIC "-//W3C//DTD SVG 1.1//EN" "http://www.w3.org/Graphics/SVG/1.1/DTD/svg11.dtd">
<svg width="100%" height="100%" viewBox="0 0 64 64" version="1.1" xmlns="http://www.w3.org/2000/svg" xmlns:xlink="http://www.w3.org/1999/xlink" xml:space="preserve" xmlns:serif="http://www.serif.com/" style="fill-rule:evenodd;clip-rule:evenodd;stroke-linejoin:round;stroke-miterlimit:2;">
    <g id="Work_Flow">
        <rect x="6" y="7" width="6" height="2" style="fill:rgb(249,87,88);"/>
        <path d="M17,1L1,1L1,23L17,23L17,1ZM14,18C14,18.549 13.549,19 13,19L5,19C4.451,19 4,18.549 4,18L4,14C4,13.451 4.451,13 5,13L13,13C13.549,13 14,13.451 14,14L14,18ZM14,10C14,10.549 13.549,11 13,11L5,11C4.451,11 4,10.549 4,10L4,6C4,5.451 4.451,5 5,5L13,5C13.549,5 14,5.451 14,6L14,10Z" style="fill:rgb(249,87,88);fill-rule:nonzero;"/>
        <rect x="6" y="15" width="6" height="2" style="fill:rgb(249,87,88);"/>
        <path d="M40,1L24,1L24,23L40,23L40,1ZM36,19L28,19C27.451,19 27,18.549 27,18C27,17.451 27.451,17 28,17L36,17C36.549,17 37,17.451 37,18C37,18.549 36.549,19 36,19ZM36,15L28,15C27.451,15 27,14.549 27,14C27,13.451 27.451,13 28,13L36,13C36.549,13 37,13.451 37,14C37,14.549 36.549,15 36,15ZM36,11L28,11C27.451,11 27,10.549 27,10C27,9.451 27.451,9 28,9L36,9C36.549,9 37,9.451 37,10C37,10.549 36.549,11 36,11ZM36,7L28,7C27.451,7 27,6.549 27,6C27,5.451 27.451,5 28,5L36,5C36.549,5 37,5.451 37,6C37,6.549 36.549,7 36,7Z" style="fill:rgb(249,87,88);fill-rule:nonzero;"/>
        <circle cx="55" cy="9" r="3" style="fill:rgb(249,87,88);"/>
        <path d="M47,1L47,23L63,23L63,1L47,1ZM56,13.9L56,19C56,19.549 55.549,20 55,20C54.451,20 54,19.549 54,19L54,13.9C51.681,13.427 50,11.368 50,9.001C50,6.258 52.257,4.001 55,4.001C57.743,4.001 60,6.258 60,9.001C60,11.368 58.319,13.427 56,13.9Z" style="fill:rgb(249,87,88);fill-rule:nonzero;"/>
        <path d="M1,63L17,63L17,41L1,41L1,63ZM12,47C12,46.451 12.451,46 13,46C13.549,46 14,46.451 14,47L14,56C14,56.549 13.549,57 13,57C12.451,57 12,56.549 12,56L12,47ZM8,52C8,51.451 8.451,51 9,51C9.549,51 10,51.451 10,52L10,56C10,56.549 9.549,57 9,57C8.451,57 8,56.549 8,56L8,52ZM4,49C4,48.451 4.451,48 5,48C5.549,48 6,48.451 6,49L6,56C6,56.549 5.549,57 5,57C4.451,57 4,56.549 4,56L4,49Z" style="fill:rgb(249,87,88);fill-rule:nonzero;"/>
        <rect x="29" y="46" width="6" height="6" style="fill:rgb(249,87,88);"/>
        <path d="M24,63L40,63L40,41L24,41L24,63ZM27,45C27,44.451 27.451,44 28,44L36,44C36.549,44 37,44.451 37,45L37,53C37,53.549 36.549,54 36,54L28,54C27.451,54 27,53.549 27,53L27,45ZM28,57L36,57C36.549,57 37,57.451 37,58C37,58.549 36.549,59 36,59L28,59C27.451,59 27,58.549 27,58C27,57.451 27.451,57 28,57Z" style="fill:rgb(249,87,88);fill-rule:nonzero;"/>
        <path d="M53.1,55.15C55.32,53.96 54.74,53.99 56.9,55.15C56.47,52.67 56.29,53.24 58.08,51.53C55.61,51.18 56.08,51.53 55,49.29C53.9,51.54 54.39,51.18 51.92,51.53C53.72,53.25 53.53,52.7 53.1,55.15Z" style="fill:rgb(249,87,88);fill-rule:nonzero;"/>
        <path d="M47,63L63,63L63,41L47,41L47,63ZM48.79,50.51C49.05,49.73 49.56,49.84 52.72,49.4L54.1,46.56C54.267,46.216 54.617,45.996 55,45.996C55.383,45.996 55.733,46.216 55.9,46.56L57.28,49.4L60.4,49.83C60.909,49.881 61.301,50.314 61.301,50.825C61.301,51.094 61.192,51.352 61,51.54L58.73,53.72L59.28,56.82C59.291,56.879 59.296,56.94 59.296,57C59.296,57.549 58.845,58 58.296,58C58.291,58 58.285,58 58.28,58C57.95,58 58.09,58 55.03,56.4C52.45,57.77 51.9,58.32 51.19,57.81C50.48,57.3 50.79,56.87 51.35,53.72C49.23,51.71 48.52,51.35 48.79,50.51Z" style="fill:rgb(249,87,88);fill-rule:nonzero;"/>
        <rect x="18" y="11" width="5" height="2" style="fill:rgb(249,87,88);"/>
        <rect x="41" y="11" width="5" height="2" style="fill:rgb(249,87,88);"/>
        <path d="M56,32L56,24L54,24L54,31L9,31C8.451,31 8,31.451 8,32L8,40L10,40L10,33L55,33C55.549,33 56,32.549 56,32Z" style="fill:rgb(249,87,88);fill-rule:nonzero;"/>
        <path d="M32,27C32.549,27 33,26.549 33,26C33,25.451 32.549,25 32,25C31.451,25 31,25.451 31,26C31,26.549 31.451,27 32,27Z" style="fill:rgb(249,87,88);fill-rule:nonzero;"/>
        <path d="M32,30C32.549,30 33,29.549 33,29C33,28.451 32.549,28 32,28C31.451,28 31,28.451 31,29C31,29.549 31.451,30 32,30Z" style="fill:rgb(249,87,88);fill-rule:nonzero;"/>
        <path d="M32,34C31.451,34 31,34.451 31,35C31,35.549 31.451,36 32,36C32.549,36 33,35.549 33,35C33,34.451 32.549,34 32,34Z" style="fill:rgb(249,87,88);fill-rule:nonzero;"/>
        <path d="M32,37C31.451,37 31,37.451 31,38C31,38.549 31.451,39 32,39C32.549,39 33,38.549 33,38C33,37.451 32.549,37 32,37Z" style="fill:rgb(249,87,88);fill-rule:nonzero;"/>
        <rect x="18" y="51" width="5" height="2" style="fill:rgb(249,87,88);"/>
        <rect x="41" y="51" width="5" height="2" style="fill:rgb(249,87,88);"/>
    </g>
</svg>
